<?xml version="1.0" encoding="utf-8" standalone="no"?>
<!DOCTYPE svg PUBLIC "-//W3C//DTD SVG 1.1//EN"
  "http://www.w3.org/Graphics/SVG/1.1/DTD/svg11.dtd">
<svg xmlns:xlink="http://www.w3.org/1999/xlink" width="825.57972pt" height="510.331875pt" viewBox="0 0 825.57972 510.331875" xmlns="http://www.w3.org/2000/svg" version="1.1">
 <metadata>
  <rdf:RDF xmlns:dc="http://purl.org/dc/elements/1.1/" xmlns:cc="http://creativecommons.org/ns#" xmlns:rdf="http://www.w3.org/1999/02/22-rdf-syntax-ns#">
   <cc:Work>
    <dc:type rdf:resource="http://purl.org/dc/dcmitype/StillImage"/>
    <dc:date>2026-07-05T17:24:24.687746</dc:date>
    <dc:format>image/svg+xml</dc:format>
    <dc:creator>
     <cc:Agent>
      <dc:title>Matplotlib v3.9.1, https://matplotlib.org/</dc:title>
     </cc:Agent>
    </dc:creator>
   </cc:Work>
  </rdf:RDF>
 </metadata>
 <defs>
  <style type="text/css">*{stroke-linejoin: round; stroke-linecap: butt}</style>
 </defs>
 <g id="figure_1">
  <g id="patch_1">
   <path d="M 0 510.331875 
L 825.57972 510.331875 
L 825.57972 0 
L 0 0 
z
" style="fill: #ffffff"/>
  </g>
  <g id="axes_1">
   <g id="patch_2">
    <path d="M 74.39832 470.93625 
L 818.37972 470.93625 
L 818.37972 55.13625 
L 74.39832 55.13625 
z
" style="fill: #ffffff"/>
   </g>
   <g id="matplotlib.axis_1">
    <g id="xtick_1">
     <g id="line2d_1">
      <defs>
       <path id="mc857e15f46" d="M 0 0 
L 0 3.5 
" style="stroke: #0f172a; stroke-width: 0.8"/>
      </defs>
      <g>
       <use xlink:href="#mc857e15f46" x="108.215656" y="470.93625" style="fill: #0f172a; stroke: #0f172a; stroke-width: 0.8"/>
      </g>
     </g>
     <g id="text_1">
      <!-- Original -->
      <g style="fill: #0f172a" transform="translate(86.693469 486.294531) scale(0.11 -0.11)">
       <defs>
        <path id="DejaVuSans-4f" d="M 2522 4238 
Q 1834 4238 1429 3725 
Q 1025 3213 1025 2328 
Q 1025 1447 1429 934 
Q 1834 422 2522 422 
Q 3209 422 3611 934 
Q 4013 1447 4013 2328 
Q 4013 3213 3611 3725 
Q 3209 4238 2522 4238 
z
M 2522 4750 
Q 3503 4750 4090 4092 
Q 4678 3434 4678 2328 
Q 4678 1225 4090 567 
Q 3503 -91 2522 -91 
Q 1538 -91 948 565 
Q 359 1222 359 2328 
Q 359 3434 948 4092 
Q 1538 4750 2522 4750 
z
" transform="scale(0.015625)"/>
        <path id="DejaVuSans-72" d="M 2631 2963 
Q 2534 3019 2420 3045 
Q 2306 3072 2169 3072 
Q 1681 3072 1420 2755 
Q 1159 2438 1159 1844 
L 1159 0 
L 581 0 
L 581 3500 
L 1159 3500 
L 1159 2956 
Q 1341 3275 1631 3429 
Q 1922 3584 2338 3584 
Q 2397 3584 2469 3576 
Q 2541 3569 2628 3553 
L 2631 2963 
z
" transform="scale(0.015625)"/>
        <path id="DejaVuSans-69" d="M 603 3500 
L 1178 3500 
L 1178 0 
L 603 0 
L 603 3500 
z
M 603 4863 
L 1178 4863 
L 1178 4134 
L 603 4134 
L 603 4863 
z
" transform="scale(0.015625)"/>
        <path id="DejaVuSans-67" d="M 2906 1791 
Q 2906 2416 2648 2759 
Q 2391 3103 1925 3103 
Q 1463 3103 1205 2759 
Q 947 2416 947 1791 
Q 947 1169 1205 825 
Q 1463 481 1925 481 
Q 2391 481 2648 825 
Q 2906 1169 2906 1791 
z
M 3481 434 
Q 3481 -459 3084 -895 
Q 2688 -1331 1869 -1331 
Q 1566 -1331 1297 -1286 
Q 1028 -1241 775 -1147 
L 775 -588 
Q 1028 -725 1275 -790 
Q 1522 -856 1778 -856 
Q 2344 -856 2625 -561 
Q 2906 -266 2906 331 
L 2906 616 
Q 2728 306 2450 153 
Q 2172 0 1784 0 
Q 1141 0 747 490 
Q 353 981 353 1791 
Q 353 2603 747 3093 
Q 1141 3584 1784 3584 
Q 2172 3584 2450 3431 
Q 2728 3278 2906 2969 
L 2906 3500 
L 3481 3500 
L 3481 434 
z
" transform="scale(0.015625)"/>
        <path id="DejaVuSans-6e" d="M 3513 2113 
L 3513 0 
L 2938 0 
L 2938 2094 
Q 2938 2591 2744 2837 
Q 2550 3084 2163 3084 
Q 1697 3084 1428 2787 
Q 1159 2491 1159 1978 
L 1159 0 
L 581 0 
L 581 3500 
L 1159 3500 
L 1159 2956 
Q 1366 3272 1645 3428 
Q 1925 3584 2291 3584 
Q 2894 3584 3203 3211 
Q 3513 2838 3513 2113 
z
" transform="scale(0.015625)"/>
        <path id="DejaVuSans-61" d="M 2194 1759 
Q 1497 1759 1228 1600 
Q 959 1441 959 1056 
Q 959 750 1161 570 
Q 1363 391 1709 391 
Q 2188 391 2477 730 
Q 2766 1069 2766 1631 
L 2766 1759 
L 2194 1759 
z
M 3341 1997 
L 3341 0 
L 2766 0 
L 2766 531 
Q 2569 213 2275 61 
Q 1981 -91 1556 -91 
Q 1019 -91 701 211 
Q 384 513 384 1019 
Q 384 1609 779 1909 
Q 1175 2209 1959 2209 
L 2766 2209 
L 2766 2266 
Q 2766 2663 2505 2880 
Q 2244 3097 1772 3097 
Q 1472 3097 1187 3025 
Q 903 2953 641 2809 
L 641 3341 
Q 956 3463 1253 3523 
Q 1550 3584 1831 3584 
Q 2591 3584 2966 3190 
Q 3341 2797 3341 1997 
z
" transform="scale(0.015625)"/>
        <path id="DejaVuSans-6c" d="M 603 4863 
L 1178 4863 
L 1178 0 
L 603 0 
L 603 4863 
z
" transform="scale(0.015625)"/>
       </defs>
       <use xlink:href="#DejaVuSans-4f"/>
       <use xlink:href="#DejaVuSans-72" x="78.710938"/>
       <use xlink:href="#DejaVuSans-69" x="119.824219"/>
       <use xlink:href="#DejaVuSans-67" x="147.607422"/>
       <use xlink:href="#DejaVuSans-69" x="211.083984"/>
       <use xlink:href="#DejaVuSans-6e" x="238.867188"/>
       <use xlink:href="#DejaVuSans-61" x="302.246094"/>
       <use xlink:href="#DejaVuSans-6c" x="363.525391"/>
      </g>
     </g>
    </g>
    <g id="xtick_2">
     <g id="line2d_2">
      <g>
       <use xlink:href="#mc857e15f46" x="333.664565" y="470.93625" style="fill: #0f172a; stroke: #0f172a; stroke-width: 0.8"/>
      </g>
     </g>
     <g id="text_2">
      <!-- Mild -->
      <g style="fill: #0f172a" transform="translate(322.371519 486.294531) scale(0.11 -0.11)">
       <defs>
        <path id="DejaVuSans-4d" d="M 628 4666 
L 1569 4666 
L 2759 1491 
L 3956 4666 
L 4897 4666 
L 4897 0 
L 4281 0 
L 4281 4097 
L 3078 897 
L 2444 897 
L 1241 4097 
L 1241 0 
L 628 0 
L 628 4666 
z
" transform="scale(0.015625)"/>
        <path id="DejaVuSans-64" d="M 2906 2969 
L 2906 4863 
L 3481 4863 
L 3481 0 
L 2906 0 
L 2906 525 
Q 2725 213 2448 61 
Q 2172 -91 1784 -91 
Q 1150 -91 751 415 
Q 353 922 353 1747 
Q 353 2572 751 3078 
Q 1150 3584 1784 3584 
Q 2172 3584 2448 3432 
Q 2725 3281 2906 2969 
z
M 947 1747 
Q 947 1113 1208 752 
Q 1469 391 1925 391 
Q 2381 391 2643 752 
Q 2906 1113 2906 1747 
Q 2906 2381 2643 2742 
Q 2381 3103 1925 3103 
Q 1469 3103 1208 2742 
Q 947 2381 947 1747 
z
" transform="scale(0.015625)"/>
       </defs>
       <use xlink:href="#DejaVuSans-4d"/>
       <use xlink:href="#DejaVuSans-69" x="86.279297"/>
       <use xlink:href="#DejaVuSans-6c" x="114.0625"/>
       <use xlink:href="#DejaVuSans-64" x="141.845703"/>
      </g>
     </g>
    </g>
    <g id="xtick_3">
     <g id="line2d_3">
      <g>
       <use xlink:href="#mc857e15f46" x="559.113475" y="470.93625" style="fill: #0f172a; stroke: #0f172a; stroke-width: 0.8"/>
      </g>
     </g>
     <g id="text_3">
      <!-- Strong -->
      <g style="fill: #0f172a" transform="translate(540.985818 486.294531) scale(0.11 -0.11)">
       <defs>
        <path id="DejaVuSans-53" d="M 3425 4513 
L 3425 3897 
Q 3066 4069 2747 4153 
Q 2428 4238 2131 4238 
Q 1616 4238 1336 4038 
Q 1056 3838 1056 3469 
Q 1056 3159 1242 3001 
Q 1428 2844 1947 2747 
L 2328 2669 
Q 3034 2534 3370 2195 
Q 3706 1856 3706 1288 
Q 3706 609 3251 259 
Q 2797 -91 1919 -91 
Q 1588 -91 1214 -16 
Q 841 59 441 206 
L 441 856 
Q 825 641 1194 531 
Q 1563 422 1919 422 
Q 2459 422 2753 634 
Q 3047 847 3047 1241 
Q 3047 1584 2836 1778 
Q 2625 1972 2144 2069 
L 1759 2144 
Q 1053 2284 737 2584 
Q 422 2884 422 3419 
Q 422 4038 858 4394 
Q 1294 4750 2059 4750 
Q 2388 4750 2728 4690 
Q 3069 4631 3425 4513 
z
" transform="scale(0.015625)"/>
        <path id="DejaVuSans-74" d="M 1172 4494 
L 1172 3500 
L 2356 3500 
L 2356 3053 
L 1172 3053 
L 1172 1153 
Q 1172 725 1289 603 
Q 1406 481 1766 481 
L 2356 481 
L 2356 0 
L 1766 0 
Q 1100 0 847 248 
Q 594 497 594 1153 
L 594 3053 
L 172 3053 
L 172 3500 
L 594 3500 
L 594 4494 
L 1172 4494 
z
" transform="scale(0.015625)"/>
        <path id="DejaVuSans-6f" d="M 1959 3097 
Q 1497 3097 1228 2736 
Q 959 2375 959 1747 
Q 959 1119 1226 758 
Q 1494 397 1959 397 
Q 2419 397 2687 759 
Q 2956 1122 2956 1747 
Q 2956 2369 2687 2733 
Q 2419 3097 1959 3097 
z
M 1959 3584 
Q 2709 3584 3137 3096 
Q 3566 2609 3566 1747 
Q 3566 888 3137 398 
Q 2709 -91 1959 -91 
Q 1206 -91 779 398 
Q 353 888 353 1747 
Q 353 2609 779 3096 
Q 1206 3584 1959 3584 
z
" transform="scale(0.015625)"/>
       </defs>
       <use xlink:href="#DejaVuSans-53"/>
       <use xlink:href="#DejaVuSans-74" x="63.476562"/>
       <use xlink:href="#DejaVuSans-72" x="102.685547"/>
       <use xlink:href="#DejaVuSans-6f" x="141.548828"/>
       <use xlink:href="#DejaVuSans-6e" x="202.730469"/>
       <use xlink:href="#DejaVuSans-67" x="266.109375"/>
      </g>
     </g>
    </g>
    <g id="xtick_4">
     <g id="line2d_4">
      <g>
       <use xlink:href="#mc857e15f46" x="784.562384" y="470.93625" style="fill: #0f172a; stroke: #0f172a; stroke-width: 0.8"/>
      </g>
     </g>
     <g id="text_4">
      <!-- Lexical -->
      <g style="fill: #0f172a" transform="translate(765.600274 486.294531) scale(0.11 -0.11)">
       <defs>
        <path id="DejaVuSans-4c" d="M 628 4666 
L 1259 4666 
L 1259 531 
L 3531 531 
L 3531 0 
L 628 0 
L 628 4666 
z
" transform="scale(0.015625)"/>
        <path id="DejaVuSans-65" d="M 3597 1894 
L 3597 1613 
L 953 1613 
Q 991 1019 1311 708 
Q 1631 397 2203 397 
Q 2534 397 2845 478 
Q 3156 559 3463 722 
L 3463 178 
Q 3153 47 2828 -22 
Q 2503 -91 2169 -91 
Q 1331 -91 842 396 
Q 353 884 353 1716 
Q 353 2575 817 3079 
Q 1281 3584 2069 3584 
Q 2775 3584 3186 3129 
Q 3597 2675 3597 1894 
z
M 3022 2063 
Q 3016 2534 2758 2815 
Q 2500 3097 2075 3097 
Q 1594 3097 1305 2825 
Q 1016 2553 972 2059 
L 3022 2063 
z
" transform="scale(0.015625)"/>
        <path id="DejaVuSans-78" d="M 3513 3500 
L 2247 1797 
L 3578 0 
L 2900 0 
L 1881 1375 
L 863 0 
L 184 0 
L 1544 1831 
L 300 3500 
L 978 3500 
L 1906 2253 
L 2834 3500 
L 3513 3500 
z
" transform="scale(0.015625)"/>
        <path id="DejaVuSans-63" d="M 3122 3366 
L 3122 2828 
Q 2878 2963 2633 3030 
Q 2388 3097 2138 3097 
Q 1578 3097 1268 2742 
Q 959 2388 959 1747 
Q 959 1106 1268 751 
Q 1578 397 2138 397 
Q 2388 397 2633 464 
Q 2878 531 3122 666 
L 3122 134 
Q 2881 22 2623 -34 
Q 2366 -91 2075 -91 
Q 1284 -91 818 406 
Q 353 903 353 1747 
Q 353 2603 823 3093 
Q 1294 3584 2113 3584 
Q 2378 3584 2631 3529 
Q 2884 3475 3122 3366 
z
" transform="scale(0.015625)"/>
       </defs>
       <use xlink:href="#DejaVuSans-4c"/>
       <use xlink:href="#DejaVuSans-65" x="53.962891"/>
       <use xlink:href="#DejaVuSans-78" x="113.736328"/>
       <use xlink:href="#DejaVuSans-69" x="172.916016"/>
       <use xlink:href="#DejaVuSans-63" x="200.699219"/>
       <use xlink:href="#DejaVuSans-61" x="255.679688"/>
       <use xlink:href="#DejaVuSans-6c" x="316.958984"/>
      </g>
      <!-- Strong -->
      <g style="fill: #0f172a" transform="translate(766.434727 498.612125) scale(0.11 -0.11)">
       <use xlink:href="#DejaVuSans-53"/>
       <use xlink:href="#DejaVuSans-74" x="63.476562"/>
       <use xlink:href="#DejaVuSans-72" x="102.685547"/>
       <use xlink:href="#DejaVuSans-6f" x="141.548828"/>
       <use xlink:href="#DejaVuSans-6e" x="202.730469"/>
       <use xlink:href="#DejaVuSans-67" x="266.109375"/>
      </g>
     </g>
    </g>
   </g>
   <g id="matplotlib.axis_2">
    <g id="ytick_1">
     <g id="line2d_5">
      <path d="M 74.39832 470.93625 
L 818.37972 470.93625 
" clip-path="url(#pd227955b5b)" style="fill: none; stroke: #e2e8f0; stroke-linecap: square"/>
     </g>
     <g id="line2d_6">
      <defs>
       <path id="mcdaf5432b0" d="M 0 0 
L -3.5 0 
" style="stroke: #0f172a; stroke-width: 0.8"/>
      </defs>
      <g>
       <use xlink:href="#mcdaf5432b0" x="74.39832" y="470.93625" style="fill: #0f172a; stroke: #0f172a; stroke-width: 0.8"/>
      </g>
     </g>
     <g id="text_5">
      <!-- 30% -->
      <g style="fill: #0f172a" transform="translate(42.949101 475.115391) scale(0.11 -0.11)">
       <defs>
        <path id="DejaVuSans-33" d="M 2597 2516 
Q 3050 2419 3304 2112 
Q 3559 1806 3559 1356 
Q 3559 666 3084 287 
Q 2609 -91 1734 -91 
Q 1441 -91 1130 -33 
Q 819 25 488 141 
L 488 750 
Q 750 597 1062 519 
Q 1375 441 1716 441 
Q 2309 441 2620 675 
Q 2931 909 2931 1356 
Q 2931 1769 2642 2001 
Q 2353 2234 1838 2234 
L 1294 2234 
L 1294 2753 
L 1863 2753 
Q 2328 2753 2575 2939 
Q 2822 3125 2822 3475 
Q 2822 3834 2567 4026 
Q 2313 4219 1838 4219 
Q 1578 4219 1281 4162 
Q 984 4106 628 3988 
L 628 4550 
Q 988 4650 1302 4700 
Q 1616 4750 1894 4750 
Q 2613 4750 3031 4423 
Q 3450 4097 3450 3541 
Q 3450 3153 3228 2886 
Q 3006 2619 2597 2516 
z
" transform="scale(0.015625)"/>
        <path id="DejaVuSans-30" d="M 2034 4250 
Q 1547 4250 1301 3770 
Q 1056 3291 1056 2328 
Q 1056 1369 1301 889 
Q 1547 409 2034 409 
Q 2525 409 2770 889 
Q 3016 1369 3016 2328 
Q 3016 3291 2770 3770 
Q 2525 4250 2034 4250 
z
M 2034 4750 
Q 2819 4750 3233 4129 
Q 3647 3509 3647 2328 
Q 3647 1150 3233 529 
Q 2819 -91 2034 -91 
Q 1250 -91 836 529 
Q 422 1150 422 2328 
Q 422 3509 836 4129 
Q 1250 4750 2034 4750 
z
" transform="scale(0.015625)"/>
        <path id="DejaVuSans-25" d="M 4653 2053 
Q 4381 2053 4226 1822 
Q 4072 1591 4072 1178 
Q 4072 772 4226 539 
Q 4381 306 4653 306 
Q 4919 306 5073 539 
Q 5228 772 5228 1178 
Q 5228 1588 5073 1820 
Q 4919 2053 4653 2053 
z
M 4653 2450 
Q 5147 2450 5437 2106 
Q 5728 1763 5728 1178 
Q 5728 594 5436 251 
Q 5144 -91 4653 -91 
Q 4153 -91 3862 251 
Q 3572 594 3572 1178 
Q 3572 1766 3864 2108 
Q 4156 2450 4653 2450 
z
M 1428 4353 
Q 1159 4353 1004 4120 
Q 850 3888 850 3481 
Q 850 3069 1003 2837 
Q 1156 2606 1428 2606 
Q 1700 2606 1854 2837 
Q 2009 3069 2009 3481 
Q 2009 3884 1853 4118 
Q 1697 4353 1428 4353 
z
M 4250 4750 
L 4750 4750 
L 1831 -91 
L 1331 -91 
L 4250 4750 
z
M 1428 4750 
Q 1922 4750 2215 4408 
Q 2509 4066 2509 3481 
Q 2509 2891 2217 2550 
Q 1925 2209 1428 2209 
Q 931 2209 642 2551 
Q 353 2894 353 3481 
Q 353 4063 643 4406 
Q 934 4750 1428 4750 
z
" transform="scale(0.015625)"/>
       </defs>
       <use xlink:href="#DejaVuSans-33"/>
       <use xlink:href="#DejaVuSans-30" x="63.623047"/>
       <use xlink:href="#DejaVuSans-25" x="127.246094"/>
      </g>
     </g>
    </g>
    <g id="ytick_2">
     <g id="line2d_7">
      <path d="M 74.39832 396.68625 
L 818.37972 396.68625 
" clip-path="url(#pd227955b5b)" style="fill: none; stroke: #e2e8f0; stroke-linecap: square"/>
     </g>
     <g id="line2d_8">
      <g>
       <use xlink:href="#mcdaf5432b0" x="74.39832" y="396.68625" style="fill: #0f172a; stroke: #0f172a; stroke-width: 0.8"/>
      </g>
     </g>
     <g id="text_6">
      <!-- 35% -->
      <g style="fill: #0f172a" transform="translate(42.949101 400.865391) scale(0.11 -0.11)">
       <defs>
        <path id="DejaVuSans-35" d="M 691 4666 
L 3169 4666 
L 3169 4134 
L 1269 4134 
L 1269 2991 
Q 1406 3038 1543 3061 
Q 1681 3084 1819 3084 
Q 2600 3084 3056 2656 
Q 3513 2228 3513 1497 
Q 3513 744 3044 326 
Q 2575 -91 1722 -91 
Q 1428 -91 1123 -41 
Q 819 9 494 109 
L 494 744 
Q 775 591 1075 516 
Q 1375 441 1709 441 
Q 2250 441 2565 725 
Q 2881 1009 2881 1497 
Q 2881 1984 2565 2268 
Q 2250 2553 1709 2553 
Q 1456 2553 1204 2497 
Q 953 2441 691 2322 
L 691 4666 
z
" transform="scale(0.015625)"/>
       </defs>
       <use xlink:href="#DejaVuSans-33"/>
       <use xlink:href="#DejaVuSans-35" x="63.623047"/>
       <use xlink:href="#DejaVuSans-25" x="127.246094"/>
      </g>
     </g>
    </g>
    <g id="ytick_3">
     <g id="line2d_9">
      <path d="M 74.39832 322.43625 
L 818.37972 322.43625 
" clip-path="url(#pd227955b5b)" style="fill: none; stroke: #e2e8f0; stroke-linecap: square"/>
     </g>
     <g id="line2d_10">
      <g>
       <use xlink:href="#mcdaf5432b0" x="74.39832" y="322.43625" style="fill: #0f172a; stroke: #0f172a; stroke-width: 0.8"/>
      </g>
     </g>
     <g id="text_7">
      <!-- 40% -->
      <g style="fill: #0f172a" transform="translate(42.949101 326.615391) scale(0.11 -0.11)">
       <defs>
        <path id="DejaVuSans-34" d="M 2419 4116 
L 825 1625 
L 2419 1625 
L 2419 4116 
z
M 2253 4666 
L 3047 4666 
L 3047 1625 
L 3713 1625 
L 3713 1100 
L 3047 1100 
L 3047 0 
L 2419 0 
L 2419 1100 
L 313 1100 
L 313 1709 
L 2253 4666 
z
" transform="scale(0.015625)"/>
       </defs>
       <use xlink:href="#DejaVuSans-34"/>
       <use xlink:href="#DejaVuSans-30" x="63.623047"/>
       <use xlink:href="#DejaVuSans-25" x="127.246094"/>
      </g>
     </g>
    </g>
    <g id="ytick_4">
     <g id="line2d_11">
      <path d="M 74.39832 248.18625 
L 818.37972 248.18625 
" clip-path="url(#pd227955b5b)" style="fill: none; stroke: #e2e8f0; stroke-linecap: square"/>
     </g>
     <g id="line2d_12">
      <g>
       <use xlink:href="#mcdaf5432b0" x="74.39832" y="248.18625" style="fill: #0f172a; stroke: #0f172a; stroke-width: 0.8"/>
      </g>
     </g>
     <g id="text_8">
      <!-- 45% -->
      <g style="fill: #0f172a" transform="translate(42.949101 252.365391) scale(0.11 -0.11)">
       <use xlink:href="#DejaVuSans-34"/>
       <use xlink:href="#DejaVuSans-35" x="63.623047"/>
       <use xlink:href="#DejaVuSans-25" x="127.246094"/>
      </g>
     </g>
    </g>
    <g id="ytick_5">
     <g id="line2d_13">
      <path d="M 74.39832 173.93625 
L 818.37972 173.93625 
" clip-path="url(#pd227955b5b)" style="fill: none; stroke: #e2e8f0; stroke-linecap: square"/>
     </g>
     <g id="line2d_14">
      <g>
       <use xlink:href="#mcdaf5432b0" x="74.39832" y="173.93625" style="fill: #0f172a; stroke: #0f172a; stroke-width: 0.8"/>
      </g>
     </g>
     <g id="text_9">
      <!-- 50% -->
      <g style="fill: #0f172a" transform="translate(42.949101 178.115391) scale(0.11 -0.11)">
       <use xlink:href="#DejaVuSans-35"/>
       <use xlink:href="#DejaVuSans-30" x="63.623047"/>
       <use xlink:href="#DejaVuSans-25" x="127.246094"/>
      </g>
     </g>
    </g>
    <g id="ytick_6">
     <g id="line2d_15">
      <path d="M 74.39832 99.68625 
L 818.37972 99.68625 
" clip-path="url(#pd227955b5b)" style="fill: none; stroke: #e2e8f0; stroke-linecap: square"/>
     </g>
     <g id="line2d_16">
      <g>
       <use xlink:href="#mcdaf5432b0" x="74.39832" y="99.68625" style="fill: #0f172a; stroke: #0f172a; stroke-width: 0.8"/>
      </g>
     </g>
     <g id="text_10">
      <!-- 55% -->
      <g style="fill: #0f172a" transform="translate(42.949101 103.865391) scale(0.11 -0.11)">
       <use xlink:href="#DejaVuSans-35"/>
       <use xlink:href="#DejaVuSans-35" x="63.623047"/>
       <use xlink:href="#DejaVuSans-25" x="127.246094"/>
      </g>
     </g>
    </g>
    <g id="text_11">
     <!-- Full-support@10 -->
     <g transform="translate(36.453476 312.129375) rotate(-90) scale(0.12 -0.12)">
      <defs>
       <path id="DejaVuSans-46" d="M 628 4666 
L 3309 4666 
L 3309 4134 
L 1259 4134 
L 1259 2759 
L 3109 2759 
L 3109 2228 
L 1259 2228 
L 1259 0 
L 628 0 
L 628 4666 
z
" transform="scale(0.015625)"/>
       <path id="DejaVuSans-75" d="M 544 1381 
L 544 3500 
L 1119 3500 
L 1119 1403 
Q 1119 906 1312 657 
Q 1506 409 1894 409 
Q 2359 409 2629 706 
Q 2900 1003 2900 1516 
L 2900 3500 
L 3475 3500 
L 3475 0 
L 2900 0 
L 2900 538 
Q 2691 219 2414 64 
Q 2138 -91 1772 -91 
Q 1169 -91 856 284 
Q 544 659 544 1381 
z
M 1991 3584 
L 1991 3584 
z
" transform="scale(0.015625)"/>
       <path id="DejaVuSans-2d" d="M 313 2009 
L 1997 2009 
L 1997 1497 
L 313 1497 
L 313 2009 
z
" transform="scale(0.015625)"/>
       <path id="DejaVuSans-73" d="M 2834 3397 
L 2834 2853 
Q 2591 2978 2328 3040 
Q 2066 3103 1784 3103 
Q 1356 3103 1142 2972 
Q 928 2841 928 2578 
Q 928 2378 1081 2264 
Q 1234 2150 1697 2047 
L 1894 2003 
Q 2506 1872 2764 1633 
Q 3022 1394 3022 966 
Q 3022 478 2636 193 
Q 2250 -91 1575 -91 
Q 1294 -91 989 -36 
Q 684 19 347 128 
L 347 722 
Q 666 556 975 473 
Q 1284 391 1588 391 
Q 1994 391 2212 530 
Q 2431 669 2431 922 
Q 2431 1156 2273 1281 
Q 2116 1406 1581 1522 
L 1381 1569 
Q 847 1681 609 1914 
Q 372 2147 372 2553 
Q 372 3047 722 3315 
Q 1072 3584 1716 3584 
Q 2034 3584 2315 3537 
Q 2597 3491 2834 3397 
z
" transform="scale(0.015625)"/>
       <path id="DejaVuSans-70" d="M 1159 525 
L 1159 -1331 
L 581 -1331 
L 581 3500 
L 1159 3500 
L 1159 2969 
Q 1341 3281 1617 3432 
Q 1894 3584 2278 3584 
Q 2916 3584 3314 3078 
Q 3713 2572 3713 1747 
Q 3713 922 3314 415 
Q 2916 -91 2278 -91 
Q 1894 -91 1617 61 
Q 1341 213 1159 525 
z
M 3116 1747 
Q 3116 2381 2855 2742 
Q 2594 3103 2138 3103 
Q 1681 3103 1420 2742 
Q 1159 2381 1159 1747 
Q 1159 1113 1420 752 
Q 1681 391 2138 391 
Q 2594 391 2855 752 
Q 3116 1113 3116 1747 
z
" transform="scale(0.015625)"/>
       <path id="DejaVuSans-40" d="M 2381 1678 
Q 2381 1231 2603 976 
Q 2825 722 3213 722 
Q 3597 722 3817 978 
Q 4038 1234 4038 1678 
Q 4038 2116 3813 2373 
Q 3588 2631 3206 2631 
Q 2828 2631 2604 2375 
Q 2381 2119 2381 1678 
z
M 4084 744 
Q 3897 503 3655 389 
Q 3413 275 3091 275 
Q 2553 275 2217 664 
Q 1881 1053 1881 1678 
Q 1881 2303 2218 2693 
Q 2556 3084 3091 3084 
Q 3413 3084 3656 2967 
Q 3900 2850 4084 2613 
L 4084 3022 
L 4531 3022 
L 4531 722 
Q 4988 791 5245 1139 
Q 5503 1488 5503 2041 
Q 5503 2375 5404 2669 
Q 5306 2963 5106 3213 
Q 4781 3622 4314 3839 
Q 3847 4056 3297 4056 
Q 2913 4056 2559 3954 
Q 2206 3853 1906 3653 
Q 1416 3334 1139 2817 
Q 863 2300 863 1697 
Q 863 1200 1042 765 
Q 1222 331 1563 0 
Q 1891 -325 2322 -495 
Q 2753 -666 3244 -666 
Q 3647 -666 4036 -530 
Q 4425 -394 4750 -141 
L 5031 -488 
Q 4641 -791 4180 -952 
Q 3719 -1113 3244 -1113 
Q 2666 -1113 2153 -908 
Q 1641 -703 1241 -313 
Q 841 78 631 592 
Q 422 1106 422 1697 
Q 422 2266 634 2781 
Q 847 3297 1241 3688 
Q 1644 4084 2172 4295 
Q 2700 4506 3291 4506 
Q 3953 4506 4520 4234 
Q 5088 3963 5472 3463 
Q 5706 3156 5829 2797 
Q 5953 2438 5953 2053 
Q 5953 1231 5456 756 
Q 4959 281 4084 263 
L 4084 744 
z
" transform="scale(0.015625)"/>
       <path id="DejaVuSans-31" d="M 794 531 
L 1825 531 
L 1825 4091 
L 703 3866 
L 703 4441 
L 1819 4666 
L 2450 4666 
L 2450 531 
L 3481 531 
L 3481 0 
L 794 0 
L 794 531 
z
" transform="scale(0.015625)"/>
      </defs>
      <use xlink:href="#DejaVuSans-46"/>
      <use xlink:href="#DejaVuSans-75" x="52.019531"/>
      <use xlink:href="#DejaVuSans-6c" x="115.398438"/>
      <use xlink:href="#DejaVuSans-6c" x="143.181641"/>
      <use xlink:href="#DejaVuSans-2d" x="170.964844"/>
      <use xlink:href="#DejaVuSans-73" x="207.048828"/>
      <use xlink:href="#DejaVuSans-75" x="259.148438"/>
      <use xlink:href="#DejaVuSans-70" x="322.527344"/>
      <use xlink:href="#DejaVuSans-70" x="386.003906"/>
      <use xlink:href="#DejaVuSans-6f" x="449.480469"/>
      <use xlink:href="#DejaVuSans-72" x="510.662109"/>
      <use xlink:href="#DejaVuSans-74" x="551.775391"/>
      <use xlink:href="#DejaVuSans-40" x="590.984375"/>
      <use xlink:href="#DejaVuSans-31" x="690.984375"/>
      <use xlink:href="#DejaVuSans-30" x="754.607422"/>
     </g>
    </g>
   </g>
   <g id="line2d_17">
    <path d="M 108.215656 374.41125 
L 333.664565 374.41125 
L 559.113475 359.56125 
L 784.562384 411.53625 
" clip-path="url(#pd227955b5b)" style="fill: none; stroke: #d97706; stroke-width: 3; stroke-linecap: square"/>
    <defs>
     <path id="m211f0d91a4" d="M 0 3.5 
C 0.928211 3.5 1.81853 3.131218 2.474874 2.474874 
C 3.131218 1.81853 3.5 0.928211 3.5 0 
C 3.5 -0.928211 3.131218 -1.81853 2.474874 -2.474874 
C 1.81853 -3.131218 0.928211 -3.5 0 -3.5 
C -0.928211 -3.5 -1.81853 -3.131218 -2.474874 -2.474874 
C -3.131218 -1.81853 -3.5 -0.928211 -3.5 0 
C -3.5 0.928211 -3.131218 1.81853 -2.474874 2.474874 
C -1.81853 3.131218 -0.928211 3.5 0 3.5 
z
" style="stroke: #d97706"/>
    </defs>
    <g clip-path="url(#pd227955b5b)">
     <use xlink:href="#m211f0d91a4" x="108.215656" y="374.41125" style="fill: #d97706; stroke: #d97706"/>
     <use xlink:href="#m211f0d91a4" x="333.664565" y="374.41125" style="fill: #d97706; stroke: #d97706"/>
     <use xlink:href="#m211f0d91a4" x="559.113475" y="359.56125" style="fill: #d97706; stroke: #d97706"/>
     <use xlink:href="#m211f0d91a4" x="784.562384" y="411.53625" style="fill: #d97706; stroke: #d97706"/>
    </g>
   </g>
   <g id="line2d_18">
    <path d="M 108.215656 151.66125 
L 333.664565 151.66125 
L 559.113475 151.66125 
L 784.562384 181.36125 
" clip-path="url(#pd227955b5b)" style="fill: none; stroke: #059669; stroke-width: 3; stroke-linecap: square"/>
    <defs>
     <path id="ma6d1d30ed5" d="M 0 3.5 
C 0.928211 3.5 1.81853 3.131218 2.474874 2.474874 
C 3.131218 1.81853 3.5 0.928211 3.5 0 
C 3.5 -0.928211 3.131218 -1.81853 2.474874 -2.474874 
C 1.81853 -3.131218 0.928211 -3.5 0 -3.5 
C -0.928211 -3.5 -1.81853 -3.131218 -2.474874 -2.474874 
C -3.131218 -1.81853 -3.5 -0.928211 -3.5 0 
C -3.5 0.928211 -3.131218 1.81853 -2.474874 2.474874 
C -1.81853 3.131218 -0.928211 3.5 0 3.5 
z
" style="stroke: #059669"/>
    </defs>
    <g clip-path="url(#pd227955b5b)">
     <use xlink:href="#ma6d1d30ed5" x="108.215656" y="151.66125" style="fill: #059669; stroke: #059669"/>
     <use xlink:href="#ma6d1d30ed5" x="333.664565" y="151.66125" style="fill: #059669; stroke: #059669"/>
     <use xlink:href="#ma6d1d30ed5" x="559.113475" y="151.66125" style="fill: #059669; stroke: #059669"/>
     <use xlink:href="#ma6d1d30ed5" x="784.562384" y="181.36125" style="fill: #059669; stroke: #059669"/>
    </g>
   </g>
   <g id="line2d_19">
    <path d="M 108.215656 121.96125 
L 333.664565 151.66125 
L 559.113475 151.66125 
L 784.562384 203.63625 
" clip-path="url(#pd227955b5b)" style="fill: none; stroke: #2563eb; stroke-width: 3; stroke-linecap: square"/>
    <defs>
     <path id="mde1e5f5533" d="M 0 3.5 
C 0.928211 3.5 1.81853 3.131218 2.474874 2.474874 
C 3.131218 1.81853 3.5 0.928211 3.5 0 
C 3.5 -0.928211 3.131218 -1.81853 2.474874 -2.474874 
C 1.81853 -3.131218 0.928211 -3.5 0 -3.5 
C -0.928211 -3.5 -1.81853 -3.131218 -2.474874 -2.474874 
C -3.131218 -1.81853 -3.5 -0.928211 -3.5 0 
C -3.5 0.928211 -3.131218 1.81853 -2.474874 2.474874 
C -1.81853 3.131218 -0.928211 3.5 0 3.5 
z
" style="stroke: #2563eb"/>
    </defs>
    <g clip-path="url(#pd227955b5b)">
     <use xlink:href="#mde1e5f5533" x="108.215656" y="121.96125" style="fill: #2563eb; stroke: #2563eb"/>
     <use xlink:href="#mde1e5f5533" x="333.664565" y="151.66125" style="fill: #2563eb; stroke: #2563eb"/>
     <use xlink:href="#mde1e5f5533" x="559.113475" y="151.66125" style="fill: #2563eb; stroke: #2563eb"/>
     <use xlink:href="#mde1e5f5533" x="784.562384" y="203.63625" style="fill: #2563eb; stroke: #2563eb"/>
    </g>
   </g>
   <g id="patch_3">
    <path d="M 74.39832 470.93625 
L 818.37972 470.93625 
" style="fill: none; stroke: #000000; stroke-width: 0.8; stroke-linejoin: miter; stroke-linecap: square"/>
   </g>
   <g id="patch_4">
    <path d="M 710.521784 105.817759 
Q 746.842756 142.875982 781.989848 178.736497 
" style="fill: none; stroke: #0f172a; stroke-width: 1.5; stroke-linecap: round"/>
    <path d="M 780.206875 173.202872 
L 781.989848 178.736497 
L 776.493164 176.8427 
" style="fill: none; stroke: #0f172a; stroke-width: 1.5; stroke-linecap: round"/>
   </g>
   <g id="text_12">
    <!-- Lexical Strong -->
    <g style="fill: #0f172a" transform="translate(615.475702 85.027531) scale(0.13 -0.13)">
     <defs>
      <path id="DejaVuSans-Bold-4c" d="M 588 4666 
L 1791 4666 
L 1791 909 
L 3903 909 
L 3903 0 
L 588 0 
L 588 4666 
z
" transform="scale(0.015625)"/>
      <path id="DejaVuSans-Bold-65" d="M 4031 1759 
L 4031 1441 
L 1416 1441 
Q 1456 1047 1700 850 
Q 1944 653 2381 653 
Q 2734 653 3104 758 
Q 3475 863 3866 1075 
L 3866 213 
Q 3469 63 3072 -14 
Q 2675 -91 2278 -91 
Q 1328 -91 801 392 
Q 275 875 275 1747 
Q 275 2603 792 3093 
Q 1309 3584 2216 3584 
Q 3041 3584 3536 3087 
Q 4031 2591 4031 1759 
z
M 2881 2131 
Q 2881 2450 2695 2645 
Q 2509 2841 2209 2841 
Q 1884 2841 1681 2658 
Q 1478 2475 1428 2131 
L 2881 2131 
z
" transform="scale(0.015625)"/>
      <path id="DejaVuSans-Bold-78" d="M 1422 1791 
L 159 3500 
L 1344 3500 
L 2059 2463 
L 2784 3500 
L 3969 3500 
L 2706 1797 
L 4031 0 
L 2847 0 
L 2059 1106 
L 1281 0 
L 97 0 
L 1422 1791 
z
" transform="scale(0.015625)"/>
      <path id="DejaVuSans-Bold-69" d="M 538 3500 
L 1656 3500 
L 1656 0 
L 538 0 
L 538 3500 
z
M 538 4863 
L 1656 4863 
L 1656 3950 
L 538 3950 
L 538 4863 
z
" transform="scale(0.015625)"/>
      <path id="DejaVuSans-Bold-63" d="M 3366 3391 
L 3366 2478 
Q 3138 2634 2908 2709 
Q 2678 2784 2431 2784 
Q 1963 2784 1702 2511 
Q 1441 2238 1441 1747 
Q 1441 1256 1702 982 
Q 1963 709 2431 709 
Q 2694 709 2930 787 
Q 3166 866 3366 1019 
L 3366 103 
Q 3103 6 2833 -42 
Q 2563 -91 2291 -91 
Q 1344 -91 809 395 
Q 275 881 275 1747 
Q 275 2613 809 3098 
Q 1344 3584 2291 3584 
Q 2566 3584 2833 3536 
Q 3100 3488 3366 3391 
z
" transform="scale(0.015625)"/>
      <path id="DejaVuSans-Bold-61" d="M 2106 1575 
Q 1756 1575 1579 1456 
Q 1403 1338 1403 1106 
Q 1403 894 1545 773 
Q 1688 653 1941 653 
Q 2256 653 2472 879 
Q 2688 1106 2688 1447 
L 2688 1575 
L 2106 1575 
z
M 3816 1997 
L 3816 0 
L 2688 0 
L 2688 519 
Q 2463 200 2181 54 
Q 1900 -91 1497 -91 
Q 953 -91 614 226 
Q 275 544 275 1050 
Q 275 1666 698 1953 
Q 1122 2241 2028 2241 
L 2688 2241 
L 2688 2328 
Q 2688 2594 2478 2717 
Q 2269 2841 1825 2841 
Q 1466 2841 1156 2769 
Q 847 2697 581 2553 
L 581 3406 
Q 941 3494 1303 3539 
Q 1666 3584 2028 3584 
Q 2975 3584 3395 3211 
Q 3816 2838 3816 1997 
z
" transform="scale(0.015625)"/>
      <path id="DejaVuSans-Bold-6c" d="M 538 4863 
L 1656 4863 
L 1656 0 
L 538 0 
L 538 4863 
z
" transform="scale(0.015625)"/>
      <path id="DejaVuSans-Bold-20" transform="scale(0.015625)"/>
      <path id="DejaVuSans-Bold-53" d="M 3834 4519 
L 3834 3531 
Q 3450 3703 3084 3790 
Q 2719 3878 2394 3878 
Q 1963 3878 1756 3759 
Q 1550 3641 1550 3391 
Q 1550 3203 1689 3098 
Q 1828 2994 2194 2919 
L 2706 2816 
Q 3484 2659 3812 2340 
Q 4141 2022 4141 1434 
Q 4141 663 3683 286 
Q 3225 -91 2284 -91 
Q 1841 -91 1394 -6 
Q 947 78 500 244 
L 500 1259 
Q 947 1022 1364 901 
Q 1781 781 2169 781 
Q 2563 781 2772 912 
Q 2981 1044 2981 1288 
Q 2981 1506 2839 1625 
Q 2697 1744 2272 1838 
L 1806 1941 
Q 1106 2091 782 2419 
Q 459 2747 459 3303 
Q 459 4000 909 4375 
Q 1359 4750 2203 4750 
Q 2588 4750 2994 4692 
Q 3400 4634 3834 4519 
z
" transform="scale(0.015625)"/>
      <path id="DejaVuSans-Bold-74" d="M 1759 4494 
L 1759 3500 
L 2913 3500 
L 2913 2700 
L 1759 2700 
L 1759 1216 
Q 1759 972 1856 886 
Q 1953 800 2241 800 
L 2816 800 
L 2816 0 
L 1856 0 
Q 1194 0 917 276 
Q 641 553 641 1216 
L 641 2700 
L 84 2700 
L 84 3500 
L 641 3500 
L 641 4494 
L 1759 4494 
z
" transform="scale(0.015625)"/>
      <path id="DejaVuSans-Bold-72" d="M 3138 2547 
Q 2991 2616 2845 2648 
Q 2700 2681 2553 2681 
Q 2122 2681 1889 2404 
Q 1656 2128 1656 1613 
L 1656 0 
L 538 0 
L 538 3500 
L 1656 3500 
L 1656 2925 
Q 1872 3269 2151 3426 
Q 2431 3584 2822 3584 
Q 2878 3584 2943 3579 
Q 3009 3575 3134 3559 
L 3138 2547 
z
" transform="scale(0.015625)"/>
      <path id="DejaVuSans-Bold-6f" d="M 2203 2784 
Q 1831 2784 1636 2517 
Q 1441 2250 1441 1747 
Q 1441 1244 1636 976 
Q 1831 709 2203 709 
Q 2569 709 2762 976 
Q 2956 1244 2956 1747 
Q 2956 2250 2762 2517 
Q 2569 2784 2203 2784 
z
M 2203 3584 
Q 3106 3584 3614 3096 
Q 4122 2609 4122 1747 
Q 4122 884 3614 396 
Q 3106 -91 2203 -91 
Q 1297 -91 786 396 
Q 275 884 275 1747 
Q 275 2609 786 3096 
Q 1297 3584 2203 3584 
z
" transform="scale(0.015625)"/>
      <path id="DejaVuSans-Bold-6e" d="M 4056 2131 
L 4056 0 
L 2931 0 
L 2931 347 
L 2931 1631 
Q 2931 2084 2911 2256 
Q 2891 2428 2841 2509 
Q 2775 2619 2662 2680 
Q 2550 2741 2406 2741 
Q 2056 2741 1856 2470 
Q 1656 2200 1656 1722 
L 1656 0 
L 538 0 
L 538 3500 
L 1656 3500 
L 1656 2988 
Q 1909 3294 2193 3439 
Q 2478 3584 2822 3584 
Q 3428 3584 3742 3212 
Q 4056 2841 4056 2131 
z
" transform="scale(0.015625)"/>
      <path id="DejaVuSans-Bold-67" d="M 2919 594 
Q 2688 288 2409 144 
Q 2131 0 1766 0 
Q 1125 0 706 504 
Q 288 1009 288 1791 
Q 288 2575 706 3076 
Q 1125 3578 1766 3578 
Q 2131 3578 2409 3434 
Q 2688 3291 2919 2981 
L 2919 3500 
L 4044 3500 
L 4044 353 
Q 4044 -491 3511 -936 
Q 2978 -1381 1966 -1381 
Q 1638 -1381 1331 -1331 
Q 1025 -1281 716 -1178 
L 716 -306 
Q 1009 -475 1290 -558 
Q 1572 -641 1856 -641 
Q 2406 -641 2662 -400 
Q 2919 -159 2919 353 
L 2919 594 
z
M 2181 2772 
Q 1834 2772 1640 2515 
Q 1447 2259 1447 1791 
Q 1447 1309 1634 1061 
Q 1822 813 2181 813 
Q 2531 813 2725 1069 
Q 2919 1325 2919 1791 
Q 2919 2259 2725 2515 
Q 2531 2772 2181 2772 
z
" transform="scale(0.015625)"/>
     </defs>
     <use xlink:href="#DejaVuSans-Bold-4c"/>
     <use xlink:href="#DejaVuSans-Bold-65" x="63.720703"/>
     <use xlink:href="#DejaVuSans-Bold-78" x="131.542969"/>
     <use xlink:href="#DejaVuSans-Bold-69" x="196.044922"/>
     <use xlink:href="#DejaVuSans-Bold-63" x="230.322266"/>
     <use xlink:href="#DejaVuSans-Bold-61" x="289.599609"/>
     <use xlink:href="#DejaVuSans-Bold-6c" x="357.080078"/>
     <use xlink:href="#DejaVuSans-Bold-20" x="391.357422"/>
     <use xlink:href="#DejaVuSans-Bold-53" x="426.171875"/>
     <use xlink:href="#DejaVuSans-Bold-74" x="498.193359"/>
     <use xlink:href="#DejaVuSans-Bold-72" x="545.996094"/>
     <use xlink:href="#DejaVuSans-Bold-6f" x="595.3125"/>
     <use xlink:href="#DejaVuSans-Bold-6e" x="664.013672"/>
     <use xlink:href="#DejaVuSans-Bold-67" x="735.205078"/>
    </g>
    <!-- is the real stress test -->
    <g style="fill: #0f172a" transform="translate(615.475702 99.68625) scale(0.13 -0.13)">
     <defs>
      <path id="DejaVuSans-Bold-73" d="M 3272 3391 
L 3272 2541 
Q 2913 2691 2578 2766 
Q 2244 2841 1947 2841 
Q 1628 2841 1473 2761 
Q 1319 2681 1319 2516 
Q 1319 2381 1436 2309 
Q 1553 2238 1856 2203 
L 2053 2175 
Q 2913 2066 3209 1816 
Q 3506 1566 3506 1031 
Q 3506 472 3093 190 
Q 2681 -91 1863 -91 
Q 1516 -91 1145 -36 
Q 775 19 384 128 
L 384 978 
Q 719 816 1070 734 
Q 1422 653 1784 653 
Q 2113 653 2278 743 
Q 2444 834 2444 1013 
Q 2444 1163 2330 1236 
Q 2216 1309 1875 1350 
L 1678 1375 
Q 931 1469 631 1722 
Q 331 1975 331 2491 
Q 331 3047 712 3315 
Q 1094 3584 1881 3584 
Q 2191 3584 2531 3537 
Q 2872 3491 3272 3391 
z
" transform="scale(0.015625)"/>
      <path id="DejaVuSans-Bold-68" d="M 4056 2131 
L 4056 0 
L 2931 0 
L 2931 347 
L 2931 1625 
Q 2931 2084 2911 2256 
Q 2891 2428 2841 2509 
Q 2775 2619 2662 2680 
Q 2550 2741 2406 2741 
Q 2056 2741 1856 2470 
Q 1656 2200 1656 1722 
L 1656 0 
L 538 0 
L 538 4863 
L 1656 4863 
L 1656 2988 
Q 1909 3294 2193 3439 
Q 2478 3584 2822 3584 
Q 3428 3584 3742 3212 
Q 4056 2841 4056 2131 
z
" transform="scale(0.015625)"/>
     </defs>
     <use xlink:href="#DejaVuSans-Bold-69"/>
     <use xlink:href="#DejaVuSans-Bold-73" x="34.277344"/>
     <use xlink:href="#DejaVuSans-Bold-20" x="93.798828"/>
     <use xlink:href="#DejaVuSans-Bold-74" x="128.613281"/>
     <use xlink:href="#DejaVuSans-Bold-68" x="176.416016"/>
     <use xlink:href="#DejaVuSans-Bold-65" x="247.607422"/>
     <use xlink:href="#DejaVuSans-Bold-20" x="315.429688"/>
     <use xlink:href="#DejaVuSans-Bold-72" x="350.244141"/>
     <use xlink:href="#DejaVuSans-Bold-65" x="399.560547"/>
     <use xlink:href="#DejaVuSans-Bold-61" x="467.382812"/>
     <use xlink:href="#DejaVuSans-Bold-6c" x="534.863281"/>
     <use xlink:href="#DejaVuSans-Bold-20" x="569.140625"/>
     <use xlink:href="#DejaVuSans-Bold-73" x="603.955078"/>
     <use xlink:href="#DejaVuSans-Bold-74" x="663.476562"/>
     <use xlink:href="#DejaVuSans-Bold-72" x="711.279297"/>
     <use xlink:href="#DejaVuSans-Bold-65" x="760.595703"/>
     <use xlink:href="#DejaVuSans-Bold-73" x="828.417969"/>
     <use xlink:href="#DejaVuSans-Bold-73" x="887.939453"/>
     <use xlink:href="#DejaVuSans-Bold-20" x="947.460938"/>
     <use xlink:href="#DejaVuSans-Bold-74" x="982.275391"/>
     <use xlink:href="#DejaVuSans-Bold-65" x="1030.078125"/>
     <use xlink:href="#DejaVuSans-Bold-73" x="1097.900391"/>
     <use xlink:href="#DejaVuSans-Bold-74" x="1157.421875"/>
    </g>
   </g>
   <g id="legend_1">
    <g id="line2d_20">
     <path d="M 84.29832 438.752656 
L 95.29832 438.752656 
L 106.29832 438.752656 
" style="fill: none; stroke: #d97706; stroke-width: 3; stroke-linecap: square"/>
     <g>
      <use xlink:href="#m211f0d91a4" x="95.29832" y="438.752656" style="fill: #d97706; stroke: #d97706"/>
     </g>
    </g>
    <g id="text_13">
     <!-- BM25 -->
     <g transform="translate(115.09832 442.602656) scale(0.11 -0.11)">
      <defs>
       <path id="DejaVuSans-42" d="M 1259 2228 
L 1259 519 
L 2272 519 
Q 2781 519 3026 730 
Q 3272 941 3272 1375 
Q 3272 1813 3026 2020 
Q 2781 2228 2272 2228 
L 1259 2228 
z
M 1259 4147 
L 1259 2741 
L 2194 2741 
Q 2656 2741 2882 2914 
Q 3109 3088 3109 3444 
Q 3109 3797 2882 3972 
Q 2656 4147 2194 4147 
L 1259 4147 
z
M 628 4666 
L 2241 4666 
Q 2963 4666 3353 4366 
Q 3744 4066 3744 3513 
Q 3744 3084 3544 2831 
Q 3344 2578 2956 2516 
Q 3422 2416 3680 2098 
Q 3938 1781 3938 1306 
Q 3938 681 3513 340 
Q 3088 0 2303 0 
L 628 0 
L 628 4666 
z
" transform="scale(0.015625)"/>
       <path id="DejaVuSans-32" d="M 1228 531 
L 3431 531 
L 3431 0 
L 469 0 
L 469 531 
Q 828 903 1448 1529 
Q 2069 2156 2228 2338 
Q 2531 2678 2651 2914 
Q 2772 3150 2772 3378 
Q 2772 3750 2511 3984 
Q 2250 4219 1831 4219 
Q 1534 4219 1204 4116 
Q 875 4013 500 3803 
L 500 4441 
Q 881 4594 1212 4672 
Q 1544 4750 1819 4750 
Q 2544 4750 2975 4387 
Q 3406 4025 3406 3419 
Q 3406 3131 3298 2873 
Q 3191 2616 2906 2266 
Q 2828 2175 2409 1742 
Q 1991 1309 1228 531 
z
" transform="scale(0.015625)"/>
      </defs>
      <use xlink:href="#DejaVuSans-42"/>
      <use xlink:href="#DejaVuSans-4d" x="68.603516"/>
      <use xlink:href="#DejaVuSans-32" x="154.882812"/>
      <use xlink:href="#DejaVuSans-35" x="218.505859"/>
     </g>
    </g>
    <g id="line2d_21">
     <path d="M 84.29832 454.898594 
L 95.29832 454.898594 
L 106.29832 454.898594 
" style="fill: none; stroke: #059669; stroke-width: 3; stroke-linecap: square"/>
     <g>
      <use xlink:href="#ma6d1d30ed5" x="95.29832" y="454.898594" style="fill: #059669; stroke: #059669"/>
     </g>
    </g>
    <g id="text_14">
     <!-- Dense -->
     <g transform="translate(115.09832 458.748594) scale(0.11 -0.11)">
      <defs>
       <path id="DejaVuSans-44" d="M 1259 4147 
L 1259 519 
L 2022 519 
Q 2988 519 3436 956 
Q 3884 1394 3884 2338 
Q 3884 3275 3436 3711 
Q 2988 4147 2022 4147 
L 1259 4147 
z
M 628 4666 
L 1925 4666 
Q 3281 4666 3915 4102 
Q 4550 3538 4550 2338 
Q 4550 1131 3912 565 
Q 3275 0 1925 0 
L 628 0 
L 628 4666 
z
" transform="scale(0.015625)"/>
      </defs>
      <use xlink:href="#DejaVuSans-44"/>
      <use xlink:href="#DejaVuSans-65" x="77.001953"/>
      <use xlink:href="#DejaVuSans-6e" x="138.525391"/>
      <use xlink:href="#DejaVuSans-73" x="201.904297"/>
      <use xlink:href="#DejaVuSans-65" x="254.003906"/>
     </g>
    </g>
    <g id="line2d_22">
     <path d="M 171.806758 438.752656 
L 182.806758 438.752656 
L 193.806758 438.752656 
" style="fill: none; stroke: #2563eb; stroke-width: 3; stroke-linecap: square"/>
     <g>
      <use xlink:href="#mde1e5f5533" x="182.806758" y="438.752656" style="fill: #2563eb; stroke: #2563eb"/>
     </g>
    </g>
    <g id="text_15">
     <!-- Baseline -->
     <g transform="translate(202.606758 442.602656) scale(0.11 -0.11)">
      <use xlink:href="#DejaVuSans-42"/>
      <use xlink:href="#DejaVuSans-61" x="68.603516"/>
      <use xlink:href="#DejaVuSans-73" x="129.882812"/>
      <use xlink:href="#DejaVuSans-65" x="181.982422"/>
      <use xlink:href="#DejaVuSans-6c" x="243.505859"/>
      <use xlink:href="#DejaVuSans-69" x="271.289062"/>
      <use xlink:href="#DejaVuSans-6e" x="299.072266"/>
      <use xlink:href="#DejaVuSans-65" x="362.451172"/>
     </g>
    </g>
   </g>
  </g>
  <g id="text_16">
   <!-- Paraphrase robustness -->
   <g style="fill: #0f172a" transform="translate(7.2 25.43625) scale(0.24 -0.24)">
    <defs>
     <path id="DejaVuSans-Bold-50" d="M 588 4666 
L 2584 4666 
Q 3475 4666 3951 4270 
Q 4428 3875 4428 3144 
Q 4428 2409 3951 2014 
Q 3475 1619 2584 1619 
L 1791 1619 
L 1791 0 
L 588 0 
L 588 4666 
z
M 1791 3794 
L 1791 2491 
L 2456 2491 
Q 2806 2491 2997 2661 
Q 3188 2831 3188 3144 
Q 3188 3456 2997 3625 
Q 2806 3794 2456 3794 
L 1791 3794 
z
" transform="scale(0.015625)"/>
     <path id="DejaVuSans-Bold-70" d="M 1656 506 
L 1656 -1331 
L 538 -1331 
L 538 3500 
L 1656 3500 
L 1656 2988 
Q 1888 3294 2169 3439 
Q 2450 3584 2816 3584 
Q 3463 3584 3878 3070 
Q 4294 2556 4294 1747 
Q 4294 938 3878 423 
Q 3463 -91 2816 -91 
Q 2450 -91 2169 54 
Q 1888 200 1656 506 
z
M 2400 2772 
Q 2041 2772 1848 2508 
Q 1656 2244 1656 1747 
Q 1656 1250 1848 986 
Q 2041 722 2400 722 
Q 2759 722 2948 984 
Q 3138 1247 3138 1747 
Q 3138 2247 2948 2509 
Q 2759 2772 2400 2772 
z
" transform="scale(0.015625)"/>
     <path id="DejaVuSans-Bold-62" d="M 2400 722 
Q 2759 722 2948 984 
Q 3138 1247 3138 1747 
Q 3138 2247 2948 2509 
Q 2759 2772 2400 2772 
Q 2041 2772 1848 2508 
Q 1656 2244 1656 1747 
Q 1656 1250 1848 986 
Q 2041 722 2400 722 
z
M 1656 2988 
Q 1888 3294 2169 3439 
Q 2450 3584 2816 3584 
Q 3463 3584 3878 3070 
Q 4294 2556 4294 1747 
Q 4294 938 3878 423 
Q 3463 -91 2816 -91 
Q 2450 -91 2169 54 
Q 1888 200 1656 506 
L 1656 0 
L 538 0 
L 538 4863 
L 1656 4863 
L 1656 2988 
z
" transform="scale(0.015625)"/>
     <path id="DejaVuSans-Bold-75" d="M 500 1363 
L 500 3500 
L 1625 3500 
L 1625 3150 
Q 1625 2866 1622 2436 
Q 1619 2006 1619 1863 
Q 1619 1441 1641 1255 
Q 1663 1069 1716 984 
Q 1784 875 1895 815 
Q 2006 756 2150 756 
Q 2500 756 2700 1025 
Q 2900 1294 2900 1772 
L 2900 3500 
L 4019 3500 
L 4019 0 
L 2900 0 
L 2900 506 
Q 2647 200 2364 54 
Q 2081 -91 1741 -91 
Q 1134 -91 817 281 
Q 500 653 500 1363 
z
" transform="scale(0.015625)"/>
    </defs>
    <use xlink:href="#DejaVuSans-Bold-50"/>
    <use xlink:href="#DejaVuSans-Bold-61" x="70.666016"/>
    <use xlink:href="#DejaVuSans-Bold-72" x="138.146484"/>
    <use xlink:href="#DejaVuSans-Bold-61" x="187.462891"/>
    <use xlink:href="#DejaVuSans-Bold-70" x="254.943359"/>
    <use xlink:href="#DejaVuSans-Bold-68" x="326.525391"/>
    <use xlink:href="#DejaVuSans-Bold-72" x="397.716797"/>
    <use xlink:href="#DejaVuSans-Bold-61" x="447.033203"/>
    <use xlink:href="#DejaVuSans-Bold-73" x="514.513672"/>
    <use xlink:href="#DejaVuSans-Bold-65" x="574.035156"/>
    <use xlink:href="#DejaVuSans-Bold-20" x="641.857422"/>
    <use xlink:href="#DejaVuSans-Bold-72" x="676.671875"/>
    <use xlink:href="#DejaVuSans-Bold-6f" x="725.988281"/>
    <use xlink:href="#DejaVuSans-Bold-62" x="794.689453"/>
    <use xlink:href="#DejaVuSans-Bold-75" x="866.271484"/>
    <use xlink:href="#DejaVuSans-Bold-73" x="937.462891"/>
    <use xlink:href="#DejaVuSans-Bold-74" x="996.984375"/>
    <use xlink:href="#DejaVuSans-Bold-6e" x="1044.787109"/>
    <use xlink:href="#DejaVuSans-Bold-65" x="1115.978516"/>
    <use xlink:href="#DejaVuSans-Bold-73" x="1183.800781"/>
    <use xlink:href="#DejaVuSans-Bold-73" x="1243.322266"/>
   </g>
  </g>
  <g id="text_17">
   <!-- Metric: Full-support@10 across 200-query paraphrase sets -->
   <g style="fill: #64748b" transform="translate(7.2 49.73625) scale(0.13 -0.13)">
    <defs>
     <path id="DejaVuSans-3a" d="M 750 794 
L 1409 794 
L 1409 0 
L 750 0 
L 750 794 
z
M 750 3309 
L 1409 3309 
L 1409 2516 
L 750 2516 
L 750 3309 
z
" transform="scale(0.015625)"/>
     <path id="DejaVuSans-20" transform="scale(0.015625)"/>
     <path id="DejaVuSans-71" d="M 947 1747 
Q 947 1113 1208 752 
Q 1469 391 1925 391 
Q 2381 391 2643 752 
Q 2906 1113 2906 1747 
Q 2906 2381 2643 2742 
Q 2381 3103 1925 3103 
Q 1469 3103 1208 2742 
Q 947 2381 947 1747 
z
M 2906 525 
Q 2725 213 2448 61 
Q 2172 -91 1784 -91 
Q 1150 -91 751 415 
Q 353 922 353 1747 
Q 353 2572 751 3078 
Q 1150 3584 1784 3584 
Q 2172 3584 2448 3432 
Q 2725 3281 2906 2969 
L 2906 3500 
L 3481 3500 
L 3481 -1331 
L 2906 -1331 
L 2906 525 
z
" transform="scale(0.015625)"/>
     <path id="DejaVuSans-79" d="M 2059 -325 
Q 1816 -950 1584 -1140 
Q 1353 -1331 966 -1331 
L 506 -1331 
L 506 -850 
L 844 -850 
Q 1081 -850 1212 -737 
Q 1344 -625 1503 -206 
L 1606 56 
L 191 3500 
L 800 3500 
L 1894 763 
L 2988 3500 
L 3597 3500 
L 2059 -325 
z
" transform="scale(0.015625)"/>
     <path id="DejaVuSans-68" d="M 3513 2113 
L 3513 0 
L 2938 0 
L 2938 2094 
Q 2938 2591 2744 2837 
Q 2550 3084 2163 3084 
Q 1697 3084 1428 2787 
Q 1159 2491 1159 1978 
L 1159 0 
L 581 0 
L 581 4863 
L 1159 4863 
L 1159 2956 
Q 1366 3272 1645 3428 
Q 1925 3584 2291 3584 
Q 2894 3584 3203 3211 
Q 3513 2838 3513 2113 
z
" transform="scale(0.015625)"/>
    </defs>
    <use xlink:href="#DejaVuSans-4d"/>
    <use xlink:href="#DejaVuSans-65" x="86.279297"/>
    <use xlink:href="#DejaVuSans-74" x="147.802734"/>
    <use xlink:href="#DejaVuSans-72" x="187.011719"/>
    <use xlink:href="#DejaVuSans-69" x="228.125"/>
    <use xlink:href="#DejaVuSans-63" x="255.908203"/>
    <use xlink:href="#DejaVuSans-3a" x="310.888672"/>
    <use xlink:href="#DejaVuSans-20" x="344.580078"/>
    <use xlink:href="#DejaVuSans-46" x="376.367188"/>
    <use xlink:href="#DejaVuSans-75" x="428.386719"/>
    <use xlink:href="#DejaVuSans-6c" x="491.765625"/>
    <use xlink:href="#DejaVuSans-6c" x="519.548828"/>
    <use xlink:href="#DejaVuSans-2d" x="547.332031"/>
    <use xlink:href="#DejaVuSans-73" x="583.416016"/>
    <use xlink:href="#DejaVuSans-75" x="635.515625"/>
    <use xlink:href="#DejaVuSans-70" x="698.894531"/>
    <use xlink:href="#DejaVuSans-70" x="762.371094"/>
    <use xlink:href="#DejaVuSans-6f" x="825.847656"/>
    <use xlink:href="#DejaVuSans-72" x="887.029297"/>
    <use xlink:href="#DejaVuSans-74" x="928.142578"/>
    <use xlink:href="#DejaVuSans-40" x="967.351562"/>
    <use xlink:href="#DejaVuSans-31" x="1067.351562"/>
    <use xlink:href="#DejaVuSans-30" x="1130.974609"/>
    <use xlink:href="#DejaVuSans-20" x="1194.597656"/>
    <use xlink:href="#DejaVuSans-61" x="1226.384766"/>
    <use xlink:href="#DejaVuSans-63" x="1287.664062"/>
    <use xlink:href="#DejaVuSans-72" x="1342.644531"/>
    <use xlink:href="#DejaVuSans-6f" x="1381.507812"/>
    <use xlink:href="#DejaVuSans-73" x="1442.689453"/>
    <use xlink:href="#DejaVuSans-73" x="1494.789062"/>
    <use xlink:href="#DejaVuSans-20" x="1546.888672"/>
    <use xlink:href="#DejaVuSans-32" x="1578.675781"/>
    <use xlink:href="#DejaVuSans-30" x="1642.298828"/>
    <use xlink:href="#DejaVuSans-30" x="1705.921875"/>
    <use xlink:href="#DejaVuSans-2d" x="1769.544922"/>
    <use xlink:href="#DejaVuSans-71" x="1805.628906"/>
    <use xlink:href="#DejaVuSans-75" x="1869.105469"/>
    <use xlink:href="#DejaVuSans-65" x="1932.484375"/>
    <use xlink:href="#DejaVuSans-72" x="1994.007812"/>
    <use xlink:href="#DejaVuSans-79" x="2035.121094"/>
    <use xlink:href="#DejaVuSans-20" x="2094.300781"/>
    <use xlink:href="#DejaVuSans-70" x="2126.087891"/>
    <use xlink:href="#DejaVuSans-61" x="2189.564453"/>
    <use xlink:href="#DejaVuSans-72" x="2250.84375"/>
    <use xlink:href="#DejaVuSans-61" x="2291.957031"/>
    <use xlink:href="#DejaVuSans-70" x="2353.236328"/>
    <use xlink:href="#DejaVuSans-68" x="2416.712891"/>
    <use xlink:href="#DejaVuSans-72" x="2480.091797"/>
    <use xlink:href="#DejaVuSans-61" x="2521.205078"/>
    <use xlink:href="#DejaVuSans-73" x="2582.484375"/>
    <use xlink:href="#DejaVuSans-65" x="2634.583984"/>
    <use xlink:href="#DejaVuSans-20" x="2696.107422"/>
    <use xlink:href="#DejaVuSans-73" x="2727.894531"/>
    <use xlink:href="#DejaVuSans-65" x="2779.994141"/>
    <use xlink:href="#DejaVuSans-74" x="2841.517578"/>
    <use xlink:href="#DejaVuSans-73" x="2880.726562"/>
   </g>
  </g>
  <g id="text_18">
   <!-- Dense retrieval is the most stable under lexical substitution; baseline is strongest on original queries. -->
   <g style="fill: #64748b" transform="translate(7.2 500.63625) scale(0.12 -0.12)">
    <defs>
     <path id="DejaVuSans-76" d="M 191 3500 
L 800 3500 
L 1894 563 
L 2988 3500 
L 3597 3500 
L 2284 0 
L 1503 0 
L 191 3500 
z
" transform="scale(0.015625)"/>
     <path id="DejaVuSans-6d" d="M 3328 2828 
Q 3544 3216 3844 3400 
Q 4144 3584 4550 3584 
Q 5097 3584 5394 3201 
Q 5691 2819 5691 2113 
L 5691 0 
L 5113 0 
L 5113 2094 
Q 5113 2597 4934 2840 
Q 4756 3084 4391 3084 
Q 3944 3084 3684 2787 
Q 3425 2491 3425 1978 
L 3425 0 
L 2847 0 
L 2847 2094 
Q 2847 2600 2669 2842 
Q 2491 3084 2119 3084 
Q 1678 3084 1418 2786 
Q 1159 2488 1159 1978 
L 1159 0 
L 581 0 
L 581 3500 
L 1159 3500 
L 1159 2956 
Q 1356 3278 1631 3431 
Q 1906 3584 2284 3584 
Q 2666 3584 2933 3390 
Q 3200 3197 3328 2828 
z
" transform="scale(0.015625)"/>
     <path id="DejaVuSans-62" d="M 3116 1747 
Q 3116 2381 2855 2742 
Q 2594 3103 2138 3103 
Q 1681 3103 1420 2742 
Q 1159 2381 1159 1747 
Q 1159 1113 1420 752 
Q 1681 391 2138 391 
Q 2594 391 2855 752 
Q 3116 1113 3116 1747 
z
M 1159 2969 
Q 1341 3281 1617 3432 
Q 1894 3584 2278 3584 
Q 2916 3584 3314 3078 
Q 3713 2572 3713 1747 
Q 3713 922 3314 415 
Q 2916 -91 2278 -91 
Q 1894 -91 1617 61 
Q 1341 213 1159 525 
L 1159 0 
L 581 0 
L 581 4863 
L 1159 4863 
L 1159 2969 
z
" transform="scale(0.015625)"/>
     <path id="DejaVuSans-3b" d="M 750 3309 
L 1409 3309 
L 1409 2516 
L 750 2516 
L 750 3309 
z
M 750 794 
L 1409 794 
L 1409 256 
L 897 -744 
L 494 -744 
L 750 256 
L 750 794 
z
" transform="scale(0.015625)"/>
     <path id="DejaVuSans-2e" d="M 684 794 
L 1344 794 
L 1344 0 
L 684 0 
L 684 794 
z
" transform="scale(0.015625)"/>
    </defs>
    <use xlink:href="#DejaVuSans-44"/>
    <use xlink:href="#DejaVuSans-65" x="77.001953"/>
    <use xlink:href="#DejaVuSans-6e" x="138.525391"/>
    <use xlink:href="#DejaVuSans-73" x="201.904297"/>
    <use xlink:href="#DejaVuSans-65" x="254.003906"/>
    <use xlink:href="#DejaVuSans-20" x="315.527344"/>
    <use xlink:href="#DejaVuSans-72" x="347.314453"/>
    <use xlink:href="#DejaVuSans-65" x="386.177734"/>
    <use xlink:href="#DejaVuSans-74" x="447.701172"/>
    <use xlink:href="#DejaVuSans-72" x="486.910156"/>
    <use xlink:href="#DejaVuSans-69" x="528.023438"/>
    <use xlink:href="#DejaVuSans-65" x="555.806641"/>
    <use xlink:href="#DejaVuSans-76" x="617.330078"/>
    <use xlink:href="#DejaVuSans-61" x="676.509766"/>
    <use xlink:href="#DejaVuSans-6c" x="737.789062"/>
    <use xlink:href="#DejaVuSans-20" x="765.572266"/>
    <use xlink:href="#DejaVuSans-69" x="797.359375"/>
    <use xlink:href="#DejaVuSans-73" x="825.142578"/>
    <use xlink:href="#DejaVuSans-20" x="877.242188"/>
    <use xlink:href="#DejaVuSans-74" x="909.029297"/>
    <use xlink:href="#DejaVuSans-68" x="948.238281"/>
    <use xlink:href="#DejaVuSans-65" x="1011.617188"/>
    <use xlink:href="#DejaVuSans-20" x="1073.140625"/>
    <use xlink:href="#DejaVuSans-6d" x="1104.927734"/>
    <use xlink:href="#DejaVuSans-6f" x="1202.339844"/>
    <use xlink:href="#DejaVuSans-73" x="1263.521484"/>
    <use xlink:href="#DejaVuSans-74" x="1315.621094"/>
    <use xlink:href="#DejaVuSans-20" x="1354.830078"/>
    <use xlink:href="#DejaVuSans-73" x="1386.617188"/>
    <use xlink:href="#DejaVuSans-74" x="1438.716797"/>
    <use xlink:href="#DejaVuSans-61" x="1477.925781"/>
    <use xlink:href="#DejaVuSans-62" x="1539.205078"/>
    <use xlink:href="#DejaVuSans-6c" x="1602.681641"/>
    <use xlink:href="#DejaVuSans-65" x="1630.464844"/>
    <use xlink:href="#DejaVuSans-20" x="1691.988281"/>
    <use xlink:href="#DejaVuSans-75" x="1723.775391"/>
    <use xlink:href="#DejaVuSans-6e" x="1787.154297"/>
    <use xlink:href="#DejaVuSans-64" x="1850.533203"/>
    <use xlink:href="#DejaVuSans-65" x="1914.009766"/>
    <use xlink:href="#DejaVuSans-72" x="1975.533203"/>
    <use xlink:href="#DejaVuSans-20" x="2016.646484"/>
    <use xlink:href="#DejaVuSans-6c" x="2048.433594"/>
    <use xlink:href="#DejaVuSans-65" x="2076.216797"/>
    <use xlink:href="#DejaVuSans-78" x="2135.990234"/>
    <use xlink:href="#DejaVuSans-69" x="2195.169922"/>
    <use xlink:href="#DejaVuSans-63" x="2222.953125"/>
    <use xlink:href="#DejaVuSans-61" x="2277.933594"/>
    <use xlink:href="#DejaVuSans-6c" x="2339.212891"/>
    <use xlink:href="#DejaVuSans-20" x="2366.996094"/>
    <use xlink:href="#DejaVuSans-73" x="2398.783203"/>
    <use xlink:href="#DejaVuSans-75" x="2450.882812"/>
    <use xlink:href="#DejaVuSans-62" x="2514.261719"/>
    <use xlink:href="#DejaVuSans-73" x="2577.738281"/>
    <use xlink:href="#DejaVuSans-74" x="2629.837891"/>
    <use xlink:href="#DejaVuSans-69" x="2669.046875"/>
    <use xlink:href="#DejaVuSans-74" x="2696.830078"/>
    <use xlink:href="#DejaVuSans-75" x="2736.039062"/>
    <use xlink:href="#DejaVuSans-74" x="2799.417969"/>
    <use xlink:href="#DejaVuSans-69" x="2838.626953"/>
    <use xlink:href="#DejaVuSans-6f" x="2866.410156"/>
    <use xlink:href="#DejaVuSans-6e" x="2927.591797"/>
    <use xlink:href="#DejaVuSans-3b" x="2990.970703"/>
    <use xlink:href="#DejaVuSans-20" x="3024.662109"/>
    <use xlink:href="#DejaVuSans-62" x="3056.449219"/>
    <use xlink:href="#DejaVuSans-61" x="3119.925781"/>
    <use xlink:href="#DejaVuSans-73" x="3181.205078"/>
    <use xlink:href="#DejaVuSans-65" x="3233.304688"/>
    <use xlink:href="#DejaVuSans-6c" x="3294.828125"/>
    <use xlink:href="#DejaVuSans-69" x="3322.611328"/>
    <use xlink:href="#DejaVuSans-6e" x="3350.394531"/>
    <use xlink:href="#DejaVuSans-65" x="3413.773438"/>
    <use xlink:href="#DejaVuSans-20" x="3475.296875"/>
    <use xlink:href="#DejaVuSans-69" x="3507.083984"/>
    <use xlink:href="#DejaVuSans-73" x="3534.867188"/>
    <use xlink:href="#DejaVuSans-20" x="3586.966797"/>
    <use xlink:href="#DejaVuSans-73" x="3618.753906"/>
    <use xlink:href="#DejaVuSans-74" x="3670.853516"/>
    <use xlink:href="#DejaVuSans-72" x="3710.0625"/>
    <use xlink:href="#DejaVuSans-6f" x="3748.925781"/>
    <use xlink:href="#DejaVuSans-6e" x="3810.107422"/>
    <use xlink:href="#DejaVuSans-67" x="3873.486328"/>
    <use xlink:href="#DejaVuSans-65" x="3936.962891"/>
    <use xlink:href="#DejaVuSans-73" x="3998.486328"/>
    <use xlink:href="#DejaVuSans-74" x="4050.585938"/>
    <use xlink:href="#DejaVuSans-20" x="4089.794922"/>
    <use xlink:href="#DejaVuSans-6f" x="4121.582031"/>
    <use xlink:href="#DejaVuSans-6e" x="4182.763672"/>
    <use xlink:href="#DejaVuSans-20" x="4246.142578"/>
    <use xlink:href="#DejaVuSans-6f" x="4277.929688"/>
    <use xlink:href="#DejaVuSans-72" x="4339.111328"/>
    <use xlink:href="#DejaVuSans-69" x="4380.224609"/>
    <use xlink:href="#DejaVuSans-67" x="4408.007812"/>
    <use xlink:href="#DejaVuSans-69" x="4471.484375"/>
    <use xlink:href="#DejaVuSans-6e" x="4499.267578"/>
    <use xlink:href="#DejaVuSans-61" x="4562.646484"/>
    <use xlink:href="#DejaVuSans-6c" x="4623.925781"/>
    <use xlink:href="#DejaVuSans-20" x="4651.708984"/>
    <use xlink:href="#DejaVuSans-71" x="4683.496094"/>
    <use xlink:href="#DejaVuSans-75" x="4746.972656"/>
    <use xlink:href="#DejaVuSans-65" x="4810.351562"/>
    <use xlink:href="#DejaVuSans-72" x="4871.875"/>
    <use xlink:href="#DejaVuSans-69" x="4912.988281"/>
    <use xlink:href="#DejaVuSans-65" x="4940.771484"/>
    <use xlink:href="#DejaVuSans-73" x="5002.294922"/>
    <use xlink:href="#DejaVuSans-2e" x="5054.394531"/>
   </g>
  </g>
 </g>
 <defs>
  <clipPath id="pd227955b5b">
   <rect x="74.39832" y="55.13625" width="743.9814" height="415.8"/>
  </clipPath>
 </defs>
</svg>
